<svg xmlns="http://www.w3.org/2000/svg" viewBox="0 0 32 32">
  <defs>
    <linearGradient id="bg" x1="0" y1="0" x2="32" y2="32" gradientUnits="userSpaceOnUse">
      <stop offset="0%" stop-color="#E8C23A"/>
      <stop offset="100%" stop-color="#C66526"/>
    </linearGradient>
  </defs>
  <!-- Background circle -->
  <circle cx="16" cy="16" r="16" fill="url(#bg)"/>
  <!-- Smog wisps -->
  <ellipse cx="16" cy="7.5" rx="7.5" ry="2.2" fill="white" opacity="0.18"/>
  <ellipse cx="9.5" cy="5.5" rx="4" ry="1.6" fill="white" opacity="0.13"/>
  <ellipse cx="22.5" cy="6" rx="4.5" ry="1.6" fill="white" opacity="0.13"/>
  <!-- Eyes -->
  <circle cx="11.5" cy="13" r="2.4" fill="white" opacity="0.95"/>
  <circle cx="20.5" cy="13" r="2.4" fill="white" opacity="0.95"/>
  <circle cx="12.3" cy="13.5" r="1.2" fill="#1A1A2E"/>
  <circle cx="21.3" cy="13.5" r="1.2" fill="#1A1A2E"/>
  <!-- Eye shine -->
  <circle cx="12.9" cy="12.8" r="0.45" fill="white"/>
  <circle cx="21.9" cy="12.8" r="0.45" fill="white"/>
  <!-- N95 Mask -->
  <path d="M7.5 18 Q7.5 26.5 16 26.5 Q24.5 26.5 24.5 18 Z" fill="white" opacity="0.9"/>
  <!-- Mask fold -->
  <line x1="16" y1="18" x2="16" y2="26.5" stroke="#D0D0D0" stroke-width="0.7"/>
  <!-- Mask grid -->
  <line x1="8.5" y1="22" x2="23.5" y2="22" stroke="#D0D0D0" stroke-width="0.6"/>
  <!-- Mask straps -->
  <path d="M7.5 18.5 Q5.5 15 8.5 12.5" stroke="white" stroke-width="1.5" fill="none" stroke-linecap="round" opacity="0.75"/>
  <path d="M24.5 18.5 Q26.5 15 23.5 12.5" stroke="white" stroke-width="1.5" fill="none" stroke-linecap="round" opacity="0.75"/>
</svg>
